<?xml version="1.0" encoding="utf-8"?>
<!-- Generator: Adobe Illustrator 28.4.1, SVG Export Plug-In . SVG Version: 6.00 Build 0)  -->
<svg version="1.1"
	 id="svg1" xmlns:sodipodi="http://sodipodi.sourceforge.net/DTD/sodipodi-0.dtd" xmlns:inkscape="http://www.inkscape.org/namespaces/inkscape" xmlns:svg="http://www.w3.org/2000/svg" inkscape:version="1.3.2 (091e20e, 2023-11-25, custom)" sodipodi:docname="Frame.svg"
	 xmlns="http://www.w3.org/2000/svg" xmlns:xlink="http://www.w3.org/1999/xlink" x="0px" y="0px" viewBox="0 0 129.3 28"
	 style="enable-background:new 0 0 129.3 28;" xml:space="preserve">
<style type="text/css">
	.st0{fill:#34963F;fill-opacity:0.7333;}
</style>
<sodipodi:namedview  bordercolor="#ffffff" borderopacity="1" id="namedview1" inkscape:current-layer="g1" inkscape:cx="32.881788" inkscape:cy="5.737187" inkscape:deskcolor="#505050" inkscape:pagecheckerboard="1" inkscape:pageopacity="0" inkscape:showpageshadow="0" inkscape:window-height="1001" inkscape:window-maximized="1" inkscape:window-width="1920" inkscape:window-x="-9" inkscape:window-y="-9" inkscape:zoom="5.8390985" pagecolor="#505050">
	</sodipodi:namedview>
<g id="g1" inkscape:groupmode="layer" inkscape:label="Image">
	<path id="path1" class="st0" d="M4,27c-1.6-0.6-3.5-3-1.3-4c1.4-0.6,3.6,0.6,5.6,0.7c4.3,0.6,6.8-3.9,3-6.7
		C7.3,14.8,0.4,13.9,1.1,7.8C1.2-4.1,20.3,0.2,13.8,4c-2.9,1-9.2-0.4-8.3,4.5c1.2,3.1,5.5,3.3,8.2,4.4c3,0.9,3.9,3.7,3.9,6.5
		C18.8,26.9,9.6,30,4,27z M22.5,13.9c0.3-4-0.7-9.1,0.5-13c1-1.3,5.1-0.8,7.3-0.9c2,0.1,8.8-0.7,8.1,2.3c-2.1,3.1-7.3,0.9-10,3
		c-1.8,1.2-2.4,5.5,0.2,6.3c2.1,0.9,8.8-0.8,8.4,2.7c-2.2,3.6-12.3-1.1-9.9,6.4c1.1,3.7,6.2,2.5,9.2,3.3c6.9,3.8-4.7,4.1-7.3,3.8
		c-2.3,0-5,0.2-5.9-0.7C21.6,23.5,22.9,17.9,22.5,13.9z M43.8,13.9C43.9-0.9,41.2-0.7,57.3,0.1c4,0.6,2.6,3.4-0.1,3.8
		c-2.9,0.7-8-0.4-8.8,3.5c-2.4,7.7,10,1.9,8.3,7.4c-1.5,2.1-6,0.3-7.8,2.2c-1.1,1.1-1,3-0.8,4.5c0.9,3.9,6.1,2.1,9,2.7
		c2.4,0.2,4.1,2.5,1.3,3.5c-3.9,0.5-10.3,0.9-13.8-0.2C42.9,23.7,44.3,17.8,43.8,13.9z M65.2,13.7c0-3-0.1-9,0-11.9
		c0.1-2.7,2.4-2.3,4.9-1.9c5.8,0.6,11.3,1.5,12,8.6c0.8,6.3,1.8,15.3-5.3,18.4c-8.7,2.6,0-4.5,1.8-6.9c2-2.8,1.6-7,0.2-9.9
		c-0.6-1.7-7.4-8.1-8.9-6.2c-1.5,4.9-2.1,11.2-1.6,16.2c0.5,1.7,1.7,3.3,1.6,5.1c-0.1,1.6-1.8,3.1-3.4,2.8
		C63.6,25.2,65.9,17.5,65.2,13.7z M87.6,13.7c0.6-3.7-1.3-10.8,1-13.8c5-0.4,13.5,0,15.8,5.8c2.6,5.7-4.6,8.3-2.7,13.2
		c0.8,2.6,3.4,5.3,3.1,8c-5.5,4.9-6-12-11.4-10.5c-2.6,1.4-1.4,5.5-1.7,8c0.3,2.6-3.2,5.6-4,1.7C87.5,22.3,87.7,17.3,87.6,13.7z
		 M99.3,11.2c5-3.7-1.6-7.4-5.5-7.2c-3.2-0.4-1.9,6.9-1.6,8.8C94.1,14.2,97.9,13.2,99.3,11.2z M108.2,25.7c1.4-5,3.4-10.3,5-15.1
		c5.5-19.2,7.6-8.5,11.4,3c0.5,3.6,6.1,12.1,2.3,14.3c-3-1.2-2.8-5.6-7.7-4.9c-1.9,0-3.5-0.1-4.9,0.7c-1.7,0.8-2.1,3-3.7,4
		C109.1,28.7,107.8,27.4,108.2,25.7z M121.5,16.9c-1.5-12.8-5-7-6.3,1.4c0.3,0.5,2,0.3,3,0.3C119.5,18.7,121.8,19,121.5,16.9z
		 M76.3,14.4c0.4-3.4-3.2-6-4.8-8.5c2.8,2.9,7.9,5.1,5.4,9.7C76.4,17.7,76.3,15.8,76.3,14.4z"/>
</g>
</svg>
